<svg width="44" height="44" viewBox="0 0 44 44" fill="none" xmlns="http://www.w3.org/2000/svg">
<g clip-path="url(#clip0_9_64)">
<path d="M34.8327 11H9.16602V33H34.8327V11Z" fill="#212529"/>
<path fill-rule="evenodd" clip-rule="evenodd" d="M22 44C9.84974 44 0 34.1503 0 22C0 9.84974 9.84974 0 22 0C34.1503 0 44 9.84974 44 22C44 34.1503 34.1503 44 22 44ZM22.9513 16.5101C20.9809 17.3297 17.043 19.0259 11.1374 21.5989C10.1784 21.9803 9.67606 22.3533 9.63033 22.7181C9.55304 23.3346 10.3251 23.5774 11.3764 23.908C11.5194 23.9529 11.6676 23.9995 11.8195 24.0489C12.8538 24.3851 14.2452 24.7785 14.9685 24.7941C15.6246 24.8083 16.3569 24.5378 17.1653 23.9826C22.6831 20.258 25.5314 18.3754 25.7102 18.3348C25.8364 18.3061 26.0112 18.2701 26.1296 18.3754C26.2481 18.4807 26.2365 18.6801 26.2239 18.7336C26.1474 19.0596 23.1169 21.8771 21.5486 23.3351C21.0597 23.7896 20.7129 24.112 20.642 24.1857C20.4832 24.3506 20.3213 24.5067 20.1658 24.6566C19.2048 25.583 18.4843 26.2776 20.2057 27.412C21.0329 27.9571 21.6949 28.4079 22.3553 28.8577C23.0765 29.3488 23.7958 29.8387 24.7265 30.4488C24.9637 30.6042 25.1901 30.7657 25.4107 30.9229C26.25 31.5213 27.0041 32.0589 27.9357 31.9731C28.477 31.9233 29.0361 31.4143 29.3201 29.8962C29.9912 26.3085 31.3104 18.5351 31.6152 15.3319C31.6419 15.0512 31.6083 14.6921 31.5813 14.5344C31.5544 14.3767 31.498 14.1521 31.293 13.9858C31.0503 13.7889 30.6756 13.7473 30.508 13.7501C29.7461 13.7637 28.5771 14.1702 22.9513 16.5101Z" fill="white"/>
</g>
<defs>
<clipPath id="clip0_9_64">
<rect width="44" height="44" fill="white"/>
</clipPath>
</defs>
</svg>
