<svg width="44" height="44" viewBox="0 0 44 44" fill="none" xmlns="http://www.w3.org/2000/svg">
<g clip-path="url(#clip0_9_52)">
<path d="M34.5495 11.2441H9.45312V32.7553H34.5495V11.2441Z" fill="#212529"/>
<path fill-rule="evenodd" clip-rule="evenodd" d="M43.5105 22.0004C43.5105 10.1201 33.8797 0.489258 21.9994 0.489258C10.1191 0.489258 0.488281 10.1201 0.488281 22.0004C0.488281 33.8807 10.1191 43.5115 21.9994 43.5115C33.8797 43.5115 43.5105 33.8807 43.5105 22.0004ZM12.7496 12.7506C11.2438 14.2707 11.2438 16.7015 11.2438 21.5701V22.4306C11.2438 27.2921 11.2438 29.7229 12.7496 31.2501C14.2698 32.7559 16.7005 32.7559 21.5692 32.7559H22.4296C27.2911 32.7559 29.7219 32.7559 31.2492 31.2501C32.7549 29.73 32.7549 27.2992 32.7549 22.4306V21.5701C32.7549 16.7086 32.7549 14.2779 31.2492 12.7506C29.729 11.2448 27.2983 11.2448 22.4296 11.2448H21.5692C16.7077 11.2448 14.2769 11.2448 12.7496 12.7506Z" fill="white"/>
<path d="M22.6887 26.7399C17.7842 26.7399 14.9877 23.3842 14.873 17.7914H17.3396C17.4185 21.8928 19.2254 23.6281 20.6595 23.9865V17.7914H22.9755V21.3264C24.3881 21.1758 25.8795 19.5625 26.3815 17.7842H28.6903C28.5021 18.7047 28.126 19.5765 27.5856 20.3451C27.0452 21.1137 26.3522 21.7627 25.5497 22.2514C26.4452 22.697 27.2361 23.3276 27.8702 24.1013C28.5041 24.875 28.967 25.7743 29.2281 26.7399H26.6826C26.1376 25.0407 24.7753 23.7212 22.9755 23.542V26.7399H22.6887Z" fill="white"/>
</g>
<defs>
<clipPath id="clip0_9_52">
<rect width="44" height="44" fill="white"/>
</clipPath>
</defs>
</svg>
