<svg width="321" height="77" viewBox="0 0 321 77" fill="none" xmlns="http://www.w3.org/2000/svg">
<path d="M105.756 45.0149C103.229 45.0149 100.938 44.4716 98.8833 43.3851C96.8521 42.275 95.246 40.7516 94.065 38.8148C92.9077 36.8544 92.329 34.646 92.329 32.1897C92.329 29.7333 92.9077 27.5367 94.065 25.5999C95.246 23.6395 96.8521 22.1161 98.8833 21.0296C100.938 19.9195 103.241 19.3644 105.792 19.3644C107.941 19.3644 109.878 19.7423 111.602 20.4982C113.35 21.254 114.814 22.3405 115.995 23.7576L112.311 27.1588C110.634 25.222 108.555 24.2536 106.075 24.2536C104.54 24.2536 103.17 24.5961 101.966 25.281C100.761 25.9424 99.8163 26.8753 99.1313 28.0799C98.47 29.2845 98.1393 30.6544 98.1393 32.1897C98.1393 33.7249 98.47 35.0948 99.1313 36.2994C99.8163 37.504 100.761 38.4487 101.966 39.1337C103.17 39.795 104.54 40.1257 106.075 40.1257C108.555 40.1257 110.634 39.1455 112.311 37.1851L115.995 40.5863C114.814 42.027 113.35 43.1253 111.602 43.8811C109.854 44.637 107.906 45.0149 105.756 45.0149ZM131.363 45.0149C128.788 45.0149 126.462 44.4598 124.383 43.3497C122.328 42.2396 120.71 40.7162 119.529 38.7794C118.372 36.819 117.793 34.6224 117.793 32.1897C117.793 29.7569 118.372 27.5721 119.529 25.6353C120.71 23.6749 122.328 22.1397 124.383 21.0296C126.462 19.9195 128.788 19.3644 131.363 19.3644C133.937 19.3644 136.252 19.9195 138.307 21.0296C140.362 22.1397 141.979 23.6749 143.16 25.6353C144.341 27.5721 144.932 29.7569 144.932 32.1897C144.932 34.6224 144.341 36.819 143.16 38.7794C141.979 40.7162 140.362 42.2396 138.307 43.3497C136.252 44.4598 133.937 45.0149 131.363 45.0149ZM131.363 40.1257C132.827 40.1257 134.15 39.795 135.331 39.1337C136.512 38.4487 137.433 37.504 138.094 36.2994C138.779 35.0948 139.122 33.7249 139.122 32.1897C139.122 30.6544 138.779 29.2845 138.094 28.0799C137.433 26.8753 136.512 25.9424 135.331 25.281C134.15 24.5961 132.827 24.2536 131.363 24.2536C129.898 24.2536 128.576 24.5961 127.395 25.281C126.214 25.9424 125.281 26.8753 124.596 28.0799C123.934 29.2845 123.604 30.6544 123.604 32.1897C123.604 33.7249 123.934 35.0948 124.596 36.2994C125.281 37.504 126.214 38.4487 127.395 39.1337C128.576 39.795 129.898 40.1257 131.363 40.1257ZM149.245 19.7896H160.512C163.204 19.7896 165.578 20.3092 167.633 21.3484C169.711 22.3641 171.317 23.8048 172.451 25.6708C173.608 27.5367 174.187 29.7096 174.187 32.1897C174.187 34.6697 173.608 36.8426 172.451 38.7085C171.317 40.5745 169.711 42.027 167.633 43.0663C165.578 44.0819 163.204 44.5897 160.512 44.5897H149.245V19.7896ZM160.228 39.8777C162.708 39.8777 164.68 39.1927 166.145 37.8228C167.633 36.4293 168.377 34.5516 168.377 32.1897C168.377 29.8277 167.633 27.9618 166.145 26.5919C164.68 25.1984 162.708 24.5016 160.228 24.5016H154.985V39.8777H160.228Z" fill="#272727"/>
<path d="M197.718 39.984V44.5897H178.516V19.7896H197.257V24.3953H184.22V29.7805H195.734V34.2445H184.22V39.984H197.718ZM217.667 44.5897L211.679 35.9805L205.798 44.5897H199.208L208.384 31.9771L199.669 19.7896H206.188L211.892 27.8319L217.489 19.7896H223.689L215.045 31.7645L224.292 44.5897H217.667ZM237.273 19.7896C239.47 19.7896 241.371 20.1557 242.977 20.8879C244.607 21.6201 245.859 22.6593 246.733 24.0056C247.606 25.3519 248.043 26.9462 248.043 28.7885C248.043 30.6072 247.606 32.2015 246.733 33.5714C245.859 34.9177 244.607 35.9569 242.977 36.6891C241.371 37.3977 239.47 37.752 237.273 37.752H232.278V44.5897H226.538V19.7896H237.273ZM236.954 33.0754C238.678 33.0754 239.989 32.7093 240.887 31.9771C241.784 31.2213 242.233 30.1584 242.233 28.7885C242.233 27.395 241.784 26.3321 240.887 25.5999C239.989 24.8441 238.678 24.4662 236.954 24.4662H232.278V33.0754H236.954ZM271.343 39.984V44.5897H252.141V19.7896H270.883V24.3953H257.845V29.7805H269.359V34.2445H257.845V39.984H271.343ZM291.711 44.5897L286.928 37.6811H286.645H281.65V44.5897H275.91V19.7896H286.645C288.842 19.7896 290.743 20.1557 292.349 20.8879C293.979 21.6201 295.231 22.6593 296.104 24.0056C296.978 25.3519 297.415 26.9462 297.415 28.7885C297.415 30.6308 296.967 32.2251 296.069 33.5714C295.195 34.894 293.943 35.9097 292.314 36.6182L297.876 44.5897H291.711ZM291.605 28.7885C291.605 27.395 291.156 26.3321 290.259 25.5999C289.361 24.8441 288.05 24.4662 286.326 24.4662H281.65V33.1108H286.326C288.05 33.1108 289.361 32.7329 290.259 31.9771C291.156 31.2213 291.605 30.1584 291.605 28.7885ZM306.754 24.4662H298.818V19.7896H320.429V24.4662H312.493V44.5897H306.754V24.4662Z" fill="#016AFF"/>
<path d="M103.879 53.7602V63.1722H102.925V55.6426L99.227 61.9756H98.7564L95.0588 55.6829V63.1722H94.1042V53.7602H94.9244L99.0119 60.7386L103.059 53.7602H103.879ZM115.32 62.3117V63.1722H108.665V53.7602H115.118V54.6207H109.659V57.9687H114.527V58.8158H109.659V62.3117H115.32ZM127.007 53.7602V63.1722H126.025V58.8292H120.136V63.1722H119.141V53.7602H120.136V57.9553H126.025V53.7602H127.007ZM138.467 53.7602V63.1722H137.485V60.3217H134.675C134.549 60.3217 134.37 60.3128 134.137 60.2948L132.161 63.1722H131.098L133.236 60.12C132.546 59.9139 132.017 59.5508 131.65 59.0309C131.282 58.5021 131.098 57.8567 131.098 57.0947C131.098 56.037 131.43 55.2168 132.093 54.6342C132.766 54.0515 133.671 53.7602 134.809 53.7602H138.467ZM132.093 57.0678C132.093 57.8387 132.317 58.4348 132.766 58.8561C133.223 59.2685 133.886 59.4746 134.756 59.4746H137.485V54.6207H134.85C133.971 54.6207 133.29 54.8314 132.806 55.2527C132.331 55.665 132.093 56.2701 132.093 57.0678ZM149.915 62.3117V63.1722H143.259V53.7602H149.713V54.6207H144.254V57.9687H149.121V58.8158H144.254V62.3117H149.915ZM163.511 53.7602V63.1722H162.556V55.6426L158.859 61.9756H158.388L154.69 55.6829V63.1722H153.736V53.7602H154.556L158.643 60.7386L162.691 53.7602H163.511ZM176.548 58.8561H174.397V63.1722H173.429V53.7602H174.397V57.9822H176.548L179.735 53.7602H180.81L177.314 58.3318L181.012 63.1722H179.869L176.548 58.8561ZM188.27 63.2529C187.337 63.2529 186.49 63.0467 185.728 62.6344C184.975 62.2131 184.384 61.6394 183.953 60.9133C183.532 60.1873 183.321 59.3716 183.321 58.4662C183.321 57.5609 183.532 56.7452 183.953 56.0191C184.384 55.293 184.975 54.7238 185.728 54.3115C186.49 53.8902 187.337 53.6795 188.27 53.6795C189.202 53.6795 190.04 53.8857 190.784 54.298C191.537 54.7104 192.128 55.284 192.559 56.0191C192.989 56.7452 193.204 57.5609 193.204 58.4662C193.204 59.3716 192.989 60.1918 192.559 60.9268C192.128 61.6529 191.537 62.2221 190.784 62.6344C190.04 63.0467 189.202 63.2529 188.27 63.2529ZM188.27 62.3655C189.014 62.3655 189.686 62.1997 190.286 61.868C190.887 61.5274 191.358 61.0613 191.698 60.4696C192.039 59.8691 192.209 59.2012 192.209 58.4662C192.209 57.7312 192.039 57.0678 191.698 56.4762C191.358 55.8757 190.887 55.4095 190.286 55.0779C189.686 54.7372 189.014 54.5669 188.27 54.5669C187.526 54.5669 186.849 54.7372 186.239 55.0779C185.639 55.4095 185.164 55.8757 184.814 56.4762C184.473 57.0678 184.303 57.7312 184.303 58.4662C184.303 59.2012 184.473 59.8691 184.814 60.4696C185.164 61.0613 185.639 61.5274 186.239 61.868C186.849 62.1997 187.526 62.3655 188.27 62.3655ZM205.575 62.3117V65.2832H204.647V63.1722H196.432L196.418 65.2832H195.491L195.504 62.3117H195.975C196.593 62.2759 197.023 61.7873 197.265 60.8461C197.508 59.8959 197.655 58.5514 197.709 56.8124L197.817 53.7602H204.163V62.3117H205.575ZM198.597 56.9065C198.552 58.3407 198.44 59.5239 198.26 60.4562C198.09 61.3795 197.799 61.998 197.386 62.3117H203.182V54.6207H198.677L198.597 56.9065ZM217.47 58.8561H215.319V63.1722H214.351V53.7602H215.319V57.9822H217.47L220.657 53.7602H221.732L218.236 58.3318L221.934 63.1722H220.791L217.47 58.8561ZM237.919 53.7602V63.1722H236.938V54.6207H232.393L232.285 57.767C232.241 59.0668 232.133 60.1156 231.963 60.9133C231.801 61.7022 231.55 62.2938 231.21 62.6882C230.869 63.0736 230.417 63.2664 229.852 63.2664C229.61 63.2664 229.359 63.235 229.099 63.1722L229.179 62.2848C229.332 62.3207 229.48 62.3386 229.623 62.3386C230.018 62.3386 230.336 62.1817 230.578 61.868C230.829 61.5543 231.017 61.0702 231.143 60.4159C231.268 59.7525 231.353 58.8786 231.398 57.7939L231.533 53.7602H237.919ZM250.103 53.7602L245.827 61.6798C245.523 62.2445 245.164 62.6658 244.752 62.9437C244.348 63.2126 243.905 63.347 243.421 63.347C243.062 63.347 242.677 63.2619 242.264 63.0916L242.547 62.2848C242.869 62.4103 243.165 62.4731 243.434 62.4731C244.053 62.4731 244.559 62.1369 244.954 61.4646L245.222 61.0075L241.404 53.7602H242.466L245.747 60.1335L249.108 53.7602H250.103ZM260.103 53.7602V63.1722H259.135V59.273C258.113 59.7122 257.122 59.9318 256.163 59.9318C255.061 59.9318 254.2 59.6629 253.582 59.1251C252.972 58.5872 252.667 57.8343 252.667 56.8662V53.7602H253.649V56.7586C253.649 57.4847 253.877 58.0494 254.334 58.4528C254.792 58.8561 255.433 59.0578 256.257 59.0578C257.198 59.0578 258.158 58.8337 259.135 58.3855V53.7602H260.103ZM276.445 53.7602V63.1722H264.909V53.7602H265.89V62.3117H270.193V53.7602H271.175V62.3117H275.464V53.7602H276.445ZM287.884 62.3117V63.1722H281.229V53.7602H287.683V54.6207H282.224V57.9687H287.091V58.8158H282.224V62.3117H287.884ZM301.48 53.7602V63.1722H300.526V55.6426L296.828 61.9756H296.358L292.66 55.6829V63.1722H291.705V53.7602H292.526L296.613 60.7386L300.66 53.7602H301.48ZM313.661 53.7602L309.385 61.6798C309.08 62.2445 308.722 62.6658 308.309 62.9437C307.906 63.2126 307.462 63.347 306.978 63.347C306.62 63.347 306.234 63.2619 305.822 63.0916L306.104 62.2848C306.427 62.4103 306.723 62.4731 306.992 62.4731C307.61 62.4731 308.117 62.1369 308.511 61.4646L308.78 61.0075L304.961 53.7602H306.024L309.304 60.1335L312.666 53.7602H313.661Z" fill="#303030"/>
<mask id="mask0_0_101" style="mask-type:alpha" maskUnits="userSpaceOnUse" x="0" y="0" width="74" height="77">
<mask id="mask1_0_101" style="mask-type:alpha" maskUnits="userSpaceOnUse" x="0" y="0" width="74" height="77">
<path d="M63.2831 17.66C61.036 17.66 58.9561 18.3838 57.2616 19.5998L46.0476 9.50243C46.3894 8.69899 46.5858 7.81592 46.5858 6.88942C46.5858 3.21239 43.5896 0.230225 39.8952 0.230225C36.2008 0.230225 33.2046 3.21239 33.2046 6.88942C33.2046 7.51915 33.2992 8.12717 33.4664 8.71346L17.8817 19.5419C16.2891 18.1594 14.2164 17.3198 11.9402 17.3198C6.94407 17.3198 2.90063 21.3515 2.90063 26.3169C2.90063 31.2824 6.92226 35.2851 11.8966 35.3141L16.6672 54.8501C14.9655 55.9865 13.8456 57.9119 13.8456 60.1051C13.8456 63.594 16.6891 66.4241 20.1943 66.4241C22.9869 66.4241 25.3577 64.629 26.2013 62.1318L41.5606 61.7627C42.666 66.4603 46.8912 69.9709 51.9455 69.9709C57.8434 69.9709 62.6214 65.2153 62.6214 59.3451C62.6214 53.4749 57.8434 48.7193 51.9455 48.7193C46.7094 48.7193 42.3605 52.476 41.4515 57.427L26.0995 57.7961C25.2559 55.6608 23.2778 54.0974 20.907 53.8295L16.1364 34.2862C19.0162 32.7807 20.987 29.7768 20.987 26.3169C20.987 25.1805 20.7689 24.102 20.3834 23.1031L35.9754 12.2747C37.0808 13.0781 38.4334 13.5559 39.9097 13.5559C41.0806 13.5559 42.1787 13.2519 43.1387 12.7307L54.3527 22.8281C53.48 24.3409 52.9709 26.0853 52.9709 27.96C52.9709 33.642 57.5962 38.2456 63.305 38.2456C69.0138 38.2456 73.639 33.642 73.639 27.96C73.639 22.278 69.0138 17.6744 63.305 17.6744L63.2831 17.66Z" fill="white"/>
<path d="M41.9815 41.0231C44.8244 38.1936 44.8244 33.606 41.9815 30.7764C39.1386 27.9469 34.5294 27.9469 31.6865 30.7764C28.8437 33.606 28.8437 38.1936 31.6865 41.0231C34.5294 43.8527 39.1386 43.8527 41.9815 41.0231Z" fill="white"/>
<path d="M20.6997 11.6582C23.5593 11.6582 25.8776 9.35081 25.8776 6.50453C25.8776 3.65826 23.5593 1.35089 20.6997 1.35089C17.84 1.35089 15.5217 3.65826 15.5217 6.50453C15.5217 9.35081 17.84 11.6582 20.6997 11.6582Z" fill="white"/>
<path d="M5.17793 52.4119C8.03762 52.4119 10.3559 50.1046 10.3559 47.2583C10.3559 44.412 8.03762 42.1046 5.17793 42.1046C2.31824 42.1046 0 44.412 0 47.2583C0 50.1046 2.31824 52.4119 5.17793 52.4119Z" fill="white"/>
<path d="M33.715 76.7254C36.5747 76.7254 38.893 74.418 38.893 71.5718C38.893 68.7255 36.5747 66.4181 33.715 66.4181C30.8553 66.4181 28.5371 68.7255 28.5371 71.5718C28.5371 74.418 30.8553 76.7254 33.715 76.7254Z" fill="white"/>
<path d="M59.0906 12.1588C61.9134 11.7027 63.8302 9.05549 63.372 6.24599C62.9138 3.43649 60.2541 1.52863 57.4313 1.98468C54.6086 2.44073 52.6918 5.08798 53.1499 7.89748C53.6081 10.707 56.2679 12.6148 59.0906 12.1588Z" fill="white"/>
</mask>
<g mask="url(#mask1_0_101)">
<path d="M109.1 3.38918L-3.77344 -12.8561L-16.1277 72.9826L96.7461 89.2278L109.1 3.38918Z" fill="url(#paint0_linear_0_101)"/>
</g>
</mask>
<g mask="url(#mask0_0_101)">
<path d="M2.92416 -3.44268L75.8555 2.07361L69.9256 80.4725L-3.00568 74.9563L2.92416 -3.44268Z" fill="url(#paint1_linear_0_101)"/>
</g>
<defs>
<linearGradient id="paint0_linear_0_101" x1="-17.1082" y1="28.7006" x2="110.501" y2="48.3907" gradientUnits="userSpaceOnUse">
<stop stop-color="#0AF783"/>
<stop offset="0.08" stop-color="#09F18C"/>
<stop offset="0.21" stop-color="#07E4A6"/>
<stop offset="0.37" stop-color="#03CED0"/>
<stop offset="0.47" stop-color="#01BFEF"/>
<stop offset="0.64" stop-color="#0099EF"/>
<stop offset="0.91" stop-color="#0053F1"/>
</linearGradient>
<linearGradient id="paint1_linear_0_101" x1="-8.33367" y1="34.9626" x2="81.3663" y2="42.0492" gradientUnits="userSpaceOnUse">
<stop offset="0.0604165" stop-color="#1AE5E5"/>
<stop offset="0.508333" stop-color="#01AEF2"/>
<stop offset="1" stop-color="#0151EE"/>
</linearGradient>
</defs>
</svg>
