<svg width="264" height="76" viewBox="0 0 264 76" fill="none" xmlns="http://www.w3.org/2000/svg">
<path d="M64.0802 49.2506C60.5799 49.2506 57.2286 46.9793 56.2729 43.231H64.0802H71.8875H80.0548C80.5637 40.8107 80.5637 38.2043 79.8189 35.4985C78.0688 29.1314 72.5453 24.3529 65.9793 23.6082C55.4785 22.4167 46.6906 31.1793 47.8325 41.6671C48.6642 49.2754 54.8579 55.3695 62.479 56.1018C67.6922 56.5983 72.446 54.6372 75.7477 51.2365C73.8735 48.419 70.2739 47.3516 67.146 48.6548C66.2896 49.0148 65.2718 49.2506 64.0802 49.2506ZM64.0802 30.4222C67.5804 30.4222 70.9938 32.7804 71.8875 36.4418H56.2605C57.3652 32.557 60.5799 30.4222 64.0802 30.4222Z" fill="black"/>
<path d="M181.578 49.2506C178.078 49.2506 174.727 46.9793 173.771 43.231H181.578H189.386H197.553C198.062 40.8107 198.062 38.2043 197.317 35.4985C195.567 29.1314 190.043 24.3529 183.477 23.6082C172.977 22.4167 164.189 31.1793 165.331 41.6671C166.162 49.2754 172.356 55.3695 179.977 56.1018C185.19 56.5983 189.944 54.6372 193.246 51.2365C191.372 48.419 187.772 47.3516 184.644 48.6548C183.788 49.0148 182.757 49.2506 181.578 49.2506ZM181.578 30.4222C185.078 30.4222 188.492 32.7804 189.386 36.4418H173.759C174.863 32.557 178.078 30.4222 181.578 30.4222Z" fill="black"/>
<path d="M101.525 23.4995C92.4985 23.4995 85.1855 30.8125 85.1855 39.8389C85.1855 48.8652 92.4985 56.1782 101.525 56.1782C110.551 56.1782 117.864 48.8652 117.864 39.8389C117.864 30.8125 110.551 23.4995 101.525 23.4995ZM101.525 47.8471C97.1048 47.8471 93.5166 44.2589 93.5166 39.8389C93.5166 35.4188 97.1048 31.8306 101.525 31.8306C105.945 31.8306 109.533 35.4188 109.533 39.8389C109.521 44.2589 105.945 47.8471 101.525 47.8471Z" fill="black"/>
<path d="M32.0203 16.0271V41.2185L12.6171 14.5851C9.72643 10.5057 5.02449 8.07776 0 8.07776V55.7984C4.41659 55.7984 8.00197 52.2366 8.00197 47.8491V22.6454L27.4176 49.3034C30.3082 53.3828 35.0102 55.8107 40.0223 55.8107V8.07776C35.6057 8.07776 32.0203 11.6396 32.0203 16.0271Z" fill="black"/>
<path d="M144.129 8.07764C135.301 8.07764 128.144 15.0287 128.144 23.9886H117.496C117.496 28.3762 121.074 31.938 125.482 31.938H128.144V55.8106C132.552 55.8106 136.13 52.2488 136.13 47.8613V31.9503H146.778C146.778 27.5627 143.2 24.0009 138.792 24.0009H136.13C136.13 19.5271 139.709 16.0393 144.116 16.0393C148.524 16.0393 152.102 19.5148 152.102 24.0009V55.8106C156.51 55.8106 160.089 52.2488 160.089 47.8613V24.0009C160.113 15.041 152.957 8.07764 144.129 8.07764Z" fill="black"/>
<path d="M199.377 19.8279C202.013 19.8279 204.15 17.773 204.15 15.2381C204.15 12.7033 202.013 10.6484 199.377 10.6484C196.741 10.6484 194.604 12.7033 194.604 15.2381C194.604 17.773 196.741 19.8279 199.377 19.8279Z" fill="url(#paint0_linear_0_62)"/>
<path d="M199.377 69.3962C202.013 69.3962 204.15 67.2591 204.15 64.6229C204.15 61.9867 202.013 59.8496 199.377 59.8496C196.741 59.8496 194.604 61.9867 194.604 64.6229C194.604 67.2591 196.741 69.3962 199.377 69.3962Z" fill="url(#paint1_linear_0_62)"/>
<path d="M254.822 66.0918C252.183 66.0918 250.049 68.1438 250.049 70.6815C250.049 73.2192 252.183 75.2712 254.822 75.2712C257.461 75.2712 259.595 73.2192 259.595 70.6815C259.595 68.1438 257.461 66.0918 254.822 66.0918Z" fill="url(#paint2_linear_0_62)"/>
<path d="M210.758 45.1626C206.299 45.1626 202.68 48.782 202.68 53.2405C202.68 57.699 206.299 61.3184 210.758 61.3184C215.216 61.3184 218.835 57.699 218.835 53.2405C218.835 48.782 215.216 45.1626 210.758 45.1626Z" fill="url(#paint3_linear_0_62)"/>
<path d="M232.202 39.8469V39.8345C232.202 37.0159 234.5 34.7436 237.322 34.7436H237.335C241.805 34.7436 245.614 31.2173 245.639 26.7722C245.664 22.3146 242.018 18.7014 237.547 18.7262C233.076 18.751 229.529 22.5257 229.529 26.9833V26.9957C229.529 29.8142 227.232 32.0865 224.409 32.0865H223.91C221.075 32.0865 218.79 29.8018 218.79 26.9957V26.9833C218.79 22.5381 215.243 18.751 210.772 18.7262C206.289 18.7014 202.655 22.327 202.68 26.7722C202.705 31.2173 206.501 34.7436 210.984 34.7436H210.997C213.832 34.7436 216.117 37.0283 216.117 39.8345V40.0828C216.117 44.6397 219.939 48.3026 224.572 48.0915C228.868 47.8804 232.202 44.1679 232.202 39.8469Z" fill="url(#paint4_linear_0_62)"/>
<path d="M246.105 57.3012C246.093 57.3012 246.08 57.3012 246.068 57.3012C245.71 57.3012 245.426 57.0118 245.426 56.6468V53.3619C245.426 53.3367 245.426 53.3242 245.426 53.299C245.426 48.7052 241.686 44.9924 237.143 45.1686C233.008 45.3322 229.651 48.7556 229.49 52.9718C229.318 57.6033 232.934 61.4042 237.44 61.4168V61.4419H240.797C241.155 61.4419 241.439 61.7314 241.439 62.0964C241.464 64.8149 243.71 66.9922 246.414 66.816C248.734 66.665 250.623 64.7394 250.771 62.3733C250.944 59.6044 248.784 57.3012 246.105 57.3012Z" fill="url(#paint5_linear_0_62)"/>
<path d="M259.622 0.00969493C256.9 -0.163117 254.636 1.99704 254.636 4.67563C254.636 4.68797 254.636 4.70032 254.636 4.71266C254.636 5.07063 254.351 5.35453 253.993 5.35453H250.763C250.739 5.35453 250.726 5.35453 250.702 5.35453C246.186 5.35453 242.536 9.09469 242.709 13.6372C242.87 17.7723 246.235 21.1298 250.38 21.2903C254.933 21.4631 258.669 17.8464 258.682 13.3409H258.707V9.98344C258.707 9.62547 258.991 9.34156 259.35 9.34156C262.022 9.31687 264.163 7.07031 263.99 4.36703C263.841 2.04641 261.948 0.15782 259.622 0.00969493Z" fill="url(#paint6_linear_0_62)"/>
<defs>
<linearGradient id="paint0_linear_0_62" x1="199.377" y1="74.0376" x2="199.377" y2="-7.89447" gradientUnits="userSpaceOnUse">
<stop stop-color="#F59E26"/>
<stop offset="0.00561523" stop-color="#ECB129"/>
<stop offset="0.1612" stop-color="#E98133"/>
<stop offset="0.33" stop-color="#E63D33"/>
<stop offset="0.66" stop-color="#D1085B"/>
<stop offset="0.7299" stop-color="#C50F5D"/>
<stop offset="0.8675" stop-color="#A51861"/>
<stop offset="1" stop-color="#821D65"/>
</linearGradient>
<linearGradient id="paint1_linear_0_62" x1="199.377" y1="75.5664" x2="199.377" y2="-9.64302" gradientUnits="userSpaceOnUse">
<stop stop-color="#F59E26"/>
<stop offset="0.00561523" stop-color="#ECB129"/>
<stop offset="0.1612" stop-color="#E98133"/>
<stop offset="0.33" stop-color="#E63D33"/>
<stop offset="0.66" stop-color="#D1085B"/>
<stop offset="0.7299" stop-color="#C50F5D"/>
<stop offset="0.8675" stop-color="#A51861"/>
<stop offset="1" stop-color="#821D65"/>
</linearGradient>
<linearGradient id="paint2_linear_0_62" x1="254.82" y1="75.3273" x2="254.82" y2="-6.60481" gradientUnits="userSpaceOnUse">
<stop stop-color="#F59E26"/>
<stop offset="0.00561523" stop-color="#ECB129"/>
<stop offset="0.1612" stop-color="#E98133"/>
<stop offset="0.33" stop-color="#E63D33"/>
<stop offset="0.66" stop-color="#D1085B"/>
<stop offset="0.7299" stop-color="#C50F5D"/>
<stop offset="0.8675" stop-color="#A51861"/>
<stop offset="1" stop-color="#821D65"/>
</linearGradient>
<linearGradient id="paint3_linear_0_62" x1="210.758" y1="75.5282" x2="210.758" y2="-8.98003" gradientUnits="userSpaceOnUse">
<stop stop-color="#F59E26"/>
<stop offset="0.00561523" stop-color="#ECB129"/>
<stop offset="0.1612" stop-color="#E98133"/>
<stop offset="0.33" stop-color="#E63D33"/>
<stop offset="0.66" stop-color="#D1085B"/>
<stop offset="0.7299" stop-color="#C50F5D"/>
<stop offset="0.8675" stop-color="#A51861"/>
<stop offset="1" stop-color="#821D65"/>
</linearGradient>
<linearGradient id="paint4_linear_0_62" x1="224.142" y1="75.5275" x2="224.142" y2="-8.25711" gradientUnits="userSpaceOnUse">
<stop stop-color="#F59E26"/>
<stop offset="0.00561523" stop-color="#ECB129"/>
<stop offset="0.1612" stop-color="#E98133"/>
<stop offset="0.33" stop-color="#E63D33"/>
<stop offset="0.66" stop-color="#D1085B"/>
<stop offset="0.7299" stop-color="#C50F5D"/>
<stop offset="0.8675" stop-color="#A51861"/>
<stop offset="1" stop-color="#821D65"/>
</linearGradient>
<linearGradient id="paint5_linear_0_62" x1="240.129" y1="75.6716" x2="240.129" y2="-9.25397" gradientUnits="userSpaceOnUse">
<stop stop-color="#F59E26"/>
<stop offset="0.00561523" stop-color="#ECB129"/>
<stop offset="0.1612" stop-color="#E98133"/>
<stop offset="0.33" stop-color="#E63D33"/>
<stop offset="0.66" stop-color="#D1085B"/>
<stop offset="0.7299" stop-color="#C50F5D"/>
<stop offset="0.8675" stop-color="#A51861"/>
<stop offset="1" stop-color="#821D65"/>
</linearGradient>
<linearGradient id="paint6_linear_0_62" x1="253.353" y1="75.1166" x2="253.353" y2="-8.17618" gradientUnits="userSpaceOnUse">
<stop stop-color="#F59E26"/>
<stop offset="0.00561523" stop-color="#ECB129"/>
<stop offset="0.1612" stop-color="#E98133"/>
<stop offset="0.33" stop-color="#E63D33"/>
<stop offset="0.66" stop-color="#D1085B"/>
<stop offset="0.7299" stop-color="#C50F5D"/>
<stop offset="0.8675" stop-color="#A51861"/>
<stop offset="1" stop-color="#821D65"/>
</linearGradient>
</defs>
</svg>
