<svg width="264" height="83" viewBox="0 0 264 83" fill="none" xmlns="http://www.w3.org/2000/svg">
<mask id="mask0_0_79" style="mask-type:luminance" maskUnits="userSpaceOnUse" x="0" y="0" width="264" height="83">
<path d="M263.643 0H0V82.6923H263.643V0Z" fill="white"/>
</mask>
<g mask="url(#mask0_0_79)">
<path d="M106.655 64.374H108.765V68.6725C107.584 69.985 105.898 70.641 103.721 70.641C101.876 70.641 100.336 70.025 99.0889 68.8066C97.841 67.5879 97.2305 66.0344 97.2305 64.1597C97.2305 62.2847 97.8675 60.7315 99.1285 59.4726C100.39 58.2272 101.929 57.5979 103.721 57.5979C105.513 57.5979 107.013 58.1201 108.208 59.178L107.08 60.7984C106.589 60.3831 106.097 60.0886 105.606 59.9278C105.115 59.7671 104.544 59.6869 103.881 59.6869C102.619 59.6869 101.558 60.1019 100.708 60.9189C99.8454 61.7359 99.4207 62.8205 99.4207 64.1597C99.4207 65.4989 99.8322 66.5702 100.668 67.3869C101.505 68.1906 102.513 68.6056 103.695 68.6056C104.876 68.6056 105.872 68.3513 106.668 67.8288V64.374H106.655Z" fill="#909293"/>
<path d="M144.949 61.9905C144.949 64.0661 144.046 65.3784 142.255 65.9142L145.52 70.4938H142.838L139.852 66.2623H137.091V70.4938H134.98V57.906H139.626C141.525 57.906 142.892 58.2275 143.714 58.8834C144.538 59.5264 144.949 60.5707 144.949 61.9905ZM142.148 63.7849C142.573 63.4098 142.786 62.8208 142.786 61.9905C142.786 61.1734 142.56 60.611 142.122 60.3032C141.684 59.995 140.901 59.8476 139.772 59.8476H137.091V64.3473H139.719C140.914 64.3337 141.724 64.1463 142.148 63.7849Z" fill="#909293"/>
<path d="M181.889 68.753C180.628 69.9983 179.075 70.6144 177.217 70.6144C175.359 70.6144 173.806 69.9983 172.545 68.753C171.284 67.5074 170.646 65.9675 170.646 64.1061C170.646 62.2581 171.271 60.7046 172.545 59.4593C173.806 58.2139 175.359 57.5979 177.217 57.5979C179.075 57.5979 180.628 58.2139 181.889 59.4593C183.15 60.7046 183.774 62.2448 183.774 64.1061C183.787 65.9675 183.15 67.521 181.889 68.753ZM180.35 60.8786C179.5 59.9947 178.452 59.5395 177.217 59.5395C175.983 59.5395 174.934 59.9814 174.085 60.8786C173.235 61.7626 172.81 62.8472 172.81 64.1061C172.81 65.3781 173.235 66.4497 174.085 67.3333C174.934 68.2172 175.983 68.6725 177.217 68.6725C178.452 68.6725 179.5 68.2305 180.35 67.3333C181.199 66.4497 181.624 65.3648 181.624 64.1061C181.624 62.8472 181.199 61.7626 180.35 60.8786Z" fill="#909293"/>
<path d="M212.712 67.6146C213.283 68.2842 214.053 68.619 215.035 68.619C216.004 68.619 216.787 68.2842 217.358 67.6146C217.929 66.945 218.221 66.0345 218.221 64.8827V57.9192H220.332V64.9765C220.332 66.7843 219.84 68.1904 218.845 69.1678C217.863 70.1456 216.588 70.6411 215.049 70.6411C213.496 70.6411 212.235 70.1589 211.252 69.1678C210.27 68.1904 209.766 66.7976 209.766 64.9765V57.9192H211.876V64.8827C211.863 66.0345 212.142 66.945 212.712 67.6146Z" fill="#909293"/>
<path d="M257.548 59.0039C258.411 59.7407 258.849 60.8656 258.849 62.3921C258.849 63.9187 258.411 65.0302 257.522 65.7401C256.632 66.4496 255.278 66.7978 253.446 66.7978H251.23V70.4938H249.119V57.906H253.407C255.305 57.906 256.685 58.2811 257.548 59.0039ZM256.061 64.1999C256.486 63.7446 256.698 63.0884 256.698 62.2181C256.698 61.3475 256.433 60.7315 255.902 60.3701C255.371 60.0083 254.535 59.8343 253.38 59.8343H251.243V64.8695H253.685C254.84 64.8828 255.637 64.6552 256.061 64.1999Z" fill="#909293"/>
<path d="M13.3669 71.8854L13.3804 71.8716H13.3669V71.8854Z" fill="url(#paint0_linear_0_79)"/>
<path d="M81.912 39.224C81.8456 37.8179 81.6997 36.4251 81.4874 35.059C80.8636 30.9479 79.6422 27.051 77.9168 23.4353C71.3064 9.56177 57.2495 0.000244141 40.9893 0.000244141C39.9406 0.000244141 38.9186 0.0538099 37.8831 0.134159C37.684 0.14755 37.4849 0.160942 37.2993 0.174333C36.3037 0.268073 35.3213 0.388598 34.3525 0.549293C34.1798 0.576077 34.0206 0.602861 33.848 0.643036C32.8656 0.817124 31.8968 1.01799 30.9411 1.25904C30.9144 1.27243 30.888 1.27243 30.8615 1.27243C29.8658 1.52687 28.8969 1.82149 27.9412 2.15627C27.7951 2.20984 27.6492 2.25001 27.5164 2.30358C26.5474 2.63836 25.605 2.99993 24.6891 3.40169C24.6095 3.42848 24.5431 3.46865 24.4634 3.4954C23.5078 3.92395 22.5786 4.37925 21.6627 4.86135C20.7468 5.35682 19.8575 5.89249 18.9814 6.45492C18.9018 6.5085 18.8221 6.56205 18.7425 6.61563C17.8797 7.17806 17.0302 7.78069 16.2072 8.41008C16.1276 8.47704 16.0479 8.53062 15.9683 8.59758C14.8533 9.46802 13.7914 10.392 12.7693 11.3562C12.756 11.383 12.756 11.3964 12.7428 11.3964C11.7207 12.374 10.765 13.3917 9.84911 14.4764C5.22983 19.9267 1.97778 26.6091 0.663685 33.9611C0.530948 34.7242 0.411485 35.501 0.318568 36.291C0.225653 37.0811 0.146011 37.8715 0.0929159 38.6615C0.0929159 38.7284 0.0796422 38.782 0.0796422 38.8489C0.0265474 39.6792 0 40.5096 0 41.3532C0 42.6521 0.0663685 43.9377 0.185832 45.2097C0.212379 45.4776 0.238927 45.7322 0.265474 46.0001C0.796422 50.7808 2.12379 55.3205 4.1414 59.4585C4.56615 60.3288 5.03075 61.1858 5.50859 62.0294C5.58824 62.1768 5.66788 62.3106 5.74753 62.458C6.18555 63.1945 6.63685 63.931 7.128 64.6409C8.3359 66.422 9.68982 68.1093 11.1499 69.6761C11.6145 70.1717 12.0923 70.6536 12.5702 71.1225C12.5835 71.1358 12.5968 71.1491 12.61 71.1491C12.8622 71.3901 13.1277 71.6313 13.3932 71.8723C13.6188 72.0733 13.8312 72.2873 14.0702 72.5016C14.0967 72.5285 14.1232 72.5419 14.1498 72.5685C14.6276 72.9838 15.1188 73.3988 15.6232 73.8005C15.663 73.8408 15.7161 73.8677 15.7559 73.9077C16.2337 74.2961 16.7249 74.6578 17.2293 75.0192C17.2957 75.0595 17.3488 75.1131 17.4151 75.1533C17.893 75.5014 18.3841 75.8362 18.8885 76.1574C18.9681 76.211 19.061 76.2646 19.1407 76.3181C19.6185 76.6263 20.1097 76.9208 20.6008 77.202C20.707 77.269 20.8132 77.3225 20.9194 77.3894C21.3972 77.6573 21.8751 77.9252 22.3662 78.1798C22.4989 78.2467 22.6184 78.3136 22.7512 78.3805C23.229 78.6214 23.7068 78.8491 24.1847 79.0634C24.3307 79.1303 24.4767 79.1975 24.636 79.2644C25.1006 79.4651 25.5652 79.6661 26.043 79.8535C26.2156 79.9207 26.3882 79.9876 26.5607 80.0545C27.012 80.2285 27.4766 80.3893 27.9412 80.55C28.1403 80.6169 28.3261 80.6838 28.5252 80.7507C28.9765 80.8981 29.4278 81.0319 29.8924 81.1527C30.1048 81.2196 30.3172 81.2732 30.5296 81.3401C30.9808 81.4605 31.4322 81.5677 31.8835 81.6616C32.1091 81.7151 32.3346 81.7687 32.5737 81.822C33.0251 81.9158 33.4765 81.9963 33.9275 82.0766C34.1666 82.1168 34.4053 82.1704 34.6444 82.2104C35.0958 82.2776 35.5604 82.3311 36.0115 82.398C36.2505 82.4247 36.5028 82.4649 36.7416 82.4916C37.2194 82.5452 37.7107 82.5721 38.2017 82.6124C38.4273 82.6257 38.6531 82.6523 38.8787 82.6659C39.5955 82.7059 40.3124 82.7192 41.029 82.7192C41.8254 82.7192 42.6087 82.6926 43.3916 82.6523C43.6307 82.639 43.8562 82.6124 44.0821 82.5987C44.6395 82.5588 45.1969 82.5052 45.7414 82.438C45.9801 82.4114 46.2324 82.3711 46.4711 82.3445C47.0288 82.2639 47.5863 82.1837 48.1436 82.0899C48.3428 82.0499 48.5554 82.023 48.7542 81.9827C49.4314 81.8489 50.0952 81.7015 50.7586 81.5408C50.8249 81.5275 50.8913 81.5141 50.9577 81.4875C53.3071 80.8981 55.5637 80.0947 57.7273 79.117C57.7672 79.1037 57.7936 79.0903 57.8336 79.077C59.4529 78.3402 61.0194 77.5102 62.5192 76.5727C64.3509 75.4345 66.0898 74.1489 67.7091 72.7292C69.0101 71.591 70.2577 70.3857 71.4127 69.1004C72.2224 68.2031 72.9789 67.2657 73.709 66.3015C73.7354 66.2746 73.7621 66.2343 73.7754 66.2077C74.4655 65.2835 75.116 64.3194 75.7266 63.3419C75.7797 63.2481 75.8461 63.1679 75.8992 63.0741C76.4831 62.1232 77.0273 61.1458 77.5318 60.1414C77.5982 60.0073 77.6645 59.8868 77.7309 59.753C78.2219 58.762 78.6601 57.7576 79.0716 56.7266C79.1379 56.5658 79.1911 56.4184 79.2575 56.2577C79.6557 55.2266 80.0008 54.182 80.3191 53.1107C80.3723 52.95 80.4122 52.7895 80.4518 52.6288C80.7573 51.5439 81.0228 50.446 81.2351 49.3344C81.2618 49.187 81.2882 49.0399 81.3147 48.9058C81.5273 47.7543 81.6997 46.6025 81.806 45.424C81.8192 45.3305 81.8192 45.2233 81.8324 45.1295C81.9388 43.8975 82.0051 42.6521 82.0051 41.3799C81.9652 40.6301 81.952 39.9202 81.912 39.224ZM78.076 25.9931C78.2219 26.3547 78.3679 26.7162 78.5006 27.0778C78.607 27.3992 78.7133 27.734 78.8193 28.0554C78.5006 27.4661 78.1823 26.8903 77.8769 26.3413C77.8637 26.3413 77.9964 26.127 78.076 25.9931ZM77.5318 28.0152C78.2219 29.2472 78.7133 30.198 79.1112 31.0551C79.4962 32.7557 79.7749 34.5638 79.974 36.3716C79.8281 36.8804 79.6557 37.349 79.4698 37.8179C79.0184 36.9207 78.461 35.9832 77.9432 35.1262C77.7042 32.9434 77.3591 30.8542 76.8417 28.8723C77.0273 28.6714 77.1999 28.4437 77.3726 28.2295L77.5318 28.0152ZM77.6246 38.5141C78.1159 39.3445 78.567 40.0943 78.9256 40.7372C78.5937 41.4201 78.1823 42.1566 77.6778 42.9869C77.7177 41.4468 77.6778 39.9471 77.6246 38.5141ZM72.3416 16.2843C72.3683 16.2843 72.3948 16.2843 72.408 16.2843C72.4347 16.3245 72.4743 16.3646 72.5011 16.4048C74.1072 18.4671 75.5142 20.6767 76.6954 23.0202C76.8149 23.288 76.9345 23.5559 77.0408 23.8103C77.0008 23.8639 76.8549 24.0915 76.8281 24.1317C75.9788 22.8729 75.0229 21.5873 73.9213 20.2482C73.2975 18.8822 72.687 17.5431 71.9833 16.2709C72.1293 16.2709 72.262 16.2843 72.3416 16.2843ZM29.9986 11.5169C30.2641 10.392 30.5826 9.34748 30.8615 8.43687C32.4145 8.6913 33.8215 8.95914 35.1354 9.28052C33.3302 9.9769 31.6048 10.7268 29.9986 11.5169ZM37.7371 10.8072C40.3388 11.6106 42.6751 12.4543 44.8917 13.3649C45.0509 14.9719 45.144 16.6592 45.2768 18.8688C45.29 19.0831 45.3296 19.6991 45.3296 19.6991C42.9538 20.6901 40.2593 22.0024 36.9938 23.7835C34.3525 22.4845 31.8968 21.373 29.3084 20.2749C29.6535 17.8243 30.0915 15.4942 30.3304 14.0345C32.9188 12.7623 35.2682 11.7312 37.7371 10.8072ZM29.3349 6.78972C28.273 6.68259 27.2509 6.6558 26.3616 6.6558C27.5961 6.07996 28.8571 5.53094 30.1446 5.03543C29.8791 5.57111 29.6137 6.16033 29.3349 6.78972ZM33.6753 26.81C31.4322 28.1223 29.242 29.4213 27.1447 30.7738C27.2908 28.5776 27.5164 26.4886 27.7288 24.4531L27.7819 23.9308C29.6402 24.7878 31.6181 25.752 33.6753 26.81ZM28.7774 60.6769C31.2198 59.5923 33.6488 58.4941 36.5557 56.9675C39.1309 58.3736 41.8522 59.7664 45.1173 61.3199C45.0113 63.7034 44.8386 66.0203 44.6794 68.1762C42.1972 69.2475 39.8478 70.1181 37.3656 70.9348C34.8036 69.8904 32.2418 68.712 29.8261 67.5066C29.5207 65.7391 29.1093 63.3686 28.7774 60.6769ZM28.8969 75.2871C29.1491 75.9434 29.4145 76.6263 29.7199 77.2556C28.4456 76.7468 27.158 76.1574 25.7908 75.4878C26.866 75.4612 27.9412 75.381 28.8969 75.2871ZM27.4766 56.8604C27.2244 54.2625 27.0518 51.9189 26.9457 49.7361C29.0694 51.1289 31.273 52.4947 33.5029 53.8072C32.0163 54.5973 30.5694 55.3338 29.1623 56.03C28.5916 56.2979 28.0341 56.5791 27.4766 56.8604ZM27.8482 45.3438C27.7819 41.728 27.8084 38.407 27.8881 35.0054C31.0739 32.9434 33.9543 31.2025 36.7019 29.6891C39.1309 31.0148 42.1174 32.6622 45.7414 34.6976C45.7942 38.6615 45.7942 42.2904 45.8209 45.4107C42.3964 47.4461 39.0646 49.2942 36.6752 50.6869C34.0735 49.1604 31.0207 47.3659 27.8482 45.3438ZM40.1797 26.6627C42.7546 25.3235 44.8518 24.2656 46.7366 23.3818C46.8562 25.4976 46.9493 27.8277 47.0156 30.4525C44.8518 29.1936 42.6219 27.9616 40.1797 26.6627ZM46.8562 4.24533C48.2899 4.66047 49.6038 5.10239 50.8517 5.58449C49.7897 5.66482 48.5686 5.77198 47.3208 5.98624L47.1748 5.4104C47.0685 4.99526 46.9625 4.60692 46.8562 4.24533ZM59.5061 10.2849C60.0635 11.3026 60.6212 12.5748 61.245 14.155C60.0103 14.4362 58.4177 14.7978 56.8647 15.2933C54.2895 13.7533 51.7809 12.4409 49.4978 11.4901C49.272 10.151 49.0197 8.85201 48.7542 7.72711C50.6393 7.40573 52.2055 7.27181 53.5062 7.19147C55.962 8.30296 57.8867 9.30731 59.5061 10.2849ZM55.577 6.60225C56.4665 6.61563 57.3026 6.64242 58.0459 6.6558C58.4841 7.23164 58.8688 7.86103 59.2538 8.51721C58.0859 7.84765 56.878 7.21823 55.577 6.60225ZM49.4579 61.9758C51.2631 62.7526 53.0284 63.4757 54.7276 64.132C52.8825 65.2033 50.918 66.3148 48.8737 67.2923C49.0728 65.7524 49.2852 63.9446 49.4579 61.9758ZM48.8341 14.2086C50.7189 15.1058 52.6437 16.1102 54.555 17.2217C52.8161 17.7975 51.0772 18.4403 49.4047 19.1501C49.2188 17.3824 49.0332 15.7352 48.8341 14.2086ZM50.3603 36.1839C52.6966 37.6036 54.8868 39.0363 56.7584 40.2683C55.5106 41.072 54.2099 41.8754 52.8957 42.7057C52.0728 43.2146 51.2232 43.7367 50.3871 44.2725C50.3871 43.3753 50.3871 42.4781 50.4003 41.5809C50.4003 39.813 50.4135 37.9783 50.3603 36.1839ZM51.1703 31.6844L51.064 29.5418C50.9445 27.1046 50.8249 24.7878 50.6126 22.5783C53.1612 21.4668 55.2586 20.5829 57.2495 19.8464C59.692 21.44 62.0147 23.1139 64.1122 24.7343C64.6695 27.5465 65.0678 30.3052 65.3597 32.8495C63.7671 33.9877 61.8423 35.2866 59.307 36.934C56.4398 34.9518 53.8381 33.2379 51.1703 31.6844ZM63.0898 17.0878C63.5412 18.3733 63.9659 19.8464 64.4173 21.681C62.6652 20.3017 61.1122 19.1768 59.5857 18.1591C60.568 17.8377 61.5104 17.5565 62.3997 17.302L63.0898 17.0878ZM62.5457 11.6776C63.7671 12.4945 64.975 13.3917 66.1429 14.3425C65.4792 14.4229 64.7491 14.5434 63.9794 14.6773L63.913 14.6907C63.5544 13.8069 63.0766 12.7221 62.5457 11.6776ZM47.3871 76.211C48.5686 76.4253 49.7897 76.586 51.024 76.7065C49.6969 77.2154 48.3163 77.6976 46.8961 78.1395L46.9625 77.9119C47.0952 77.3894 47.2544 76.8137 47.3871 76.211ZM48.741 74.2827C49.0065 73.0507 49.2455 71.7518 49.4446 70.185C52.086 68.926 54.4886 67.6407 57.0107 66.1275C58.6033 66.6763 60.1034 67.1315 61.59 67.4933C60.9927 69.127 60.4086 70.5198 59.8512 71.6849C57.86 72.9033 55.8292 73.9882 53.7053 74.979C52.1127 74.8452 50.4799 74.6175 48.741 74.2827ZM59.8776 63.2614C61.63 62.0966 63.2625 60.8912 64.7359 59.6725C64.4041 61.1591 63.9794 62.7126 63.4352 64.5204C62.3465 64.1453 61.1519 63.717 59.8776 63.2614ZM64.2845 67.1315C65.0014 67.3059 65.7315 67.453 66.5676 67.5871C65.4792 68.4977 64.2713 69.4082 62.8907 70.359C63.3421 69.3949 63.8467 68.2967 64.2845 67.1315ZM64.4305 56.1106C62.0015 58.0388 59.6388 59.7664 57.5417 61.1994C55.0063 60.1547 52.8293 59.137 50.6393 58.0924C50.9048 54.6509 51.064 51.5173 51.0904 48.6382C54.3426 46.6561 56.8912 45.009 59.1079 43.4555L59.267 43.3484L59.4397 43.4688C61.6165 44.9688 63.6872 46.3882 65.4128 47.6338C65.2137 50.3924 64.8687 53.2715 64.4305 56.1106ZM65.3333 42.7859C64.3245 42.0092 63.2757 41.1925 62.1609 40.3622L62.997 39.7595C64.2845 38.822 65.5192 37.9384 66.6472 37.0545C66.7535 39.0765 66.7667 41.2461 66.7135 43.8439L65.3333 42.7859ZM65.5588 17.0744C66.4616 16.8735 67.2845 16.7128 68.041 16.5655C69.6603 17.9984 71.0673 19.4179 72.2356 20.7303C72.8726 22.3238 73.4567 24.0781 74.0276 26.06L73.5231 26.4886C73.1116 26.8368 72.6602 27.2117 72.1824 27.5867C70.3904 25.6717 68.8374 24.1719 67.3508 22.913C66.8598 21.0918 66.2757 18.9893 65.5588 17.0744ZM75.4479 29.3677C75.753 30.8006 75.9788 32.2602 76.1912 33.8672C75.5274 32.9434 74.7577 31.9121 73.9213 30.881C74.4922 30.3587 74.9965 29.8498 75.4479 29.3677ZM74.5718 22.8595C75.1956 23.6898 75.7929 24.52 76.3635 25.3235L76.4299 25.4173C76.2176 25.6717 75.9521 25.9395 75.647 26.2207C75.3283 25.1226 74.97 23.9978 74.5718 22.8595ZM71.1337 30.1578C70.2844 30.8542 69.3552 31.5773 68.28 32.354C68.0809 30.573 67.8154 28.5375 67.404 26.5421C68.6119 27.6134 69.7931 28.7785 71.1337 30.1578ZM68.4392 48.7051L69.1029 49.2406C69.9126 49.8835 70.6691 50.4996 71.3596 51.1022C70.1117 52.4145 68.9038 53.5929 67.6695 54.7045C67.9746 52.7626 68.2401 50.7405 68.4392 48.7051ZM69.5144 44.9152C69.6207 41.8621 69.5939 38.8892 69.3684 36.1975C70.2312 35.4876 71.0145 34.7914 71.7578 34.1351C71.7578 34.1351 72.8197 33.1977 72.8329 33.171C74.0276 34.5638 75.0364 35.8627 75.9257 37.108C76.1116 39.5721 76.138 41.9959 76.032 44.2323C75.1956 45.4107 74.2132 46.6694 73.0321 48.0758C71.8374 46.9106 70.6691 45.8394 69.5144 44.9152ZM76.3635 47.5802C76.2044 49.0532 75.9788 50.5664 75.7001 52.1735C75.2355 51.6511 74.7178 51.0886 74.1469 50.4862C74.9833 49.4549 75.7133 48.5041 76.3635 47.5802ZM75.9521 55.4812C76.2443 55.816 76.5098 56.1239 76.7486 56.4051C76.2575 57.1818 75.6866 57.9988 74.9301 58.9763C75.3548 57.7443 75.7001 56.4989 75.9521 55.4812ZM70.7886 14.3291C70.7091 14.3157 70.6295 14.289 70.5631 14.289C70.5231 14.289 70.4835 14.289 70.4436 14.3023C70.1781 13.8872 69.9126 13.4854 69.6339 13.0971C70.0321 13.4989 70.4171 13.914 70.7886 14.3291ZM70.4568 15.7352C70.9214 16.5789 71.3596 17.4627 71.7842 18.3465C70.9346 17.4493 70.0985 16.619 69.2357 15.8289C69.687 15.7754 70.0853 15.7486 70.4568 15.7352ZM62.3865 7.70033C63.9794 8.70471 65.4924 9.80282 66.8463 10.9143C67.4968 11.7312 68.1473 12.6284 68.7711 13.5792C68.6783 13.5792 68.5852 13.5792 68.4924 13.5792H67.8818C67.7755 13.5792 67.6695 13.5926 67.5632 13.5926C67.4572 13.606 67.3508 13.606 67.2845 13.6328C65.5324 12.1865 63.7139 10.8607 61.8955 9.70907C61.3378 8.70471 60.7539 7.87444 60.329 7.27181C61.0723 7.39235 61.7627 7.51286 62.3865 7.70033ZM60.1431 6.0532C59.6788 5.95945 59.2274 5.87911 58.776 5.83891C58.4706 5.49074 58.1919 5.18273 57.9264 4.88813C58.6433 5.23631 59.3733 5.62465 60.1431 6.0532ZM46.8165 2.07592C47.9581 2.07592 49.166 2.12949 50.3739 2.25001C51.9932 2.70532 53.6921 3.30794 55.3646 4.00429C55.7229 4.33908 56.0815 4.74084 56.4665 5.18273C55.5106 5.11577 54.6081 5.06222 53.6125 5.06222L53.0684 5.08901C50.6393 4.11142 48.7809 3.48202 47.1349 3.10706C47.0421 2.82584 46.9357 2.5848 46.8429 2.35714C46.803 2.2634 46.7634 2.16966 46.7234 2.07592H46.8165ZM45.6882 1.17869H45.6615C45.675 1.17869 45.675 1.17869 45.6882 1.17869ZM45.7278 10.8473C43.9361 10.1376 42.2237 9.53498 40.6043 9.03948C42.0246 8.59758 43.5511 8.18242 45.3563 7.78069C45.4891 8.71809 45.6086 9.73586 45.7278 10.8473ZM44.4007 2.7321C43.3388 2.49106 42.29 2.30358 41.2813 2.14288C42.2105 2.00896 43.1793 1.92862 44.1617 1.86166C44.2545 2.14288 44.3344 2.4241 44.4007 2.7321ZM40.9893 0.897471C41.799 0.897471 42.6087 0.924255 43.4051 0.977822C43.4051 0.977822 43.4051 0.991214 43.4184 0.991214C41.9582 1.07156 40.4584 1.24565 38.8655 1.52687C37.6044 1.41974 36.3301 1.36617 34.9895 1.36617H34.9363C36.901 1.05817 38.9318 0.897471 40.9893 0.897471ZM33.2773 2.61158L33.3569 2.35714C33.6224 2.34375 33.8879 2.34375 34.1534 2.34375C34.7639 2.34375 35.3745 2.35714 36.0115 2.39732C34.9363 2.65176 33.9143 2.93298 32.9188 3.2276C33.0383 3.01333 33.1578 2.79906 33.2773 2.61158ZM32.7728 5.91928C32.9719 5.37023 33.171 4.86135 33.2773 4.45959C35.4409 3.80341 37.1797 3.36152 38.7591 3.0535C40.4184 3.24098 42.1041 3.5356 43.9094 3.95074C43.989 4.44621 44.0821 4.98188 44.1881 5.54432L44.2412 5.82553C42.3165 6.2005 40.2989 6.73617 38.1486 7.4459C36.4761 7.05755 34.5249 6.61563 32.6001 6.3612L32.7728 5.91928ZM23.0697 5.43719L23.2821 5.22293C24.7024 4.51317 26.2687 3.77665 28.1005 3.12047C29.1624 2.93298 30.1844 2.79906 31.1402 2.71871L31.1003 2.77228C30.9144 3.0535 30.7021 3.36152 30.5428 3.69628C28.2199 4.49979 26.1758 5.46398 24.7157 6.2005C23.9192 6.25408 23.0166 6.321 22.0742 6.45492C22.406 6.07996 22.7512 5.75857 23.0697 5.43719ZM20.1893 6.77634C20.03 6.95043 19.8575 7.13789 19.7247 7.31198C19.5124 7.35215 19.3265 7.41911 19.1274 7.47269C19.4726 7.23164 19.8309 6.9906 20.1893 6.77634ZM20.03 8.20921C20.6539 8.12887 21.3176 8.06191 22.0078 8.00833C20.7866 8.71809 19.7646 9.36089 18.8221 10.0037C19.2469 9.32072 19.6584 8.71809 20.03 8.20921ZM23.8396 8.544L23.9192 8.41008V8.544C25.021 8.544 26.2421 8.61096 27.7554 8.75826C27.2775 10.0037 26.8793 11.2625 26.574 12.5347C24.1183 13.8872 21.8751 15.2933 19.8044 16.8199C18.769 16.4985 17.7337 16.2441 16.6187 15.9629L16.4196 15.9093C16.9505 14.6505 17.5744 13.3783 18.3044 12.0258C20.2424 10.6733 22.0609 9.53498 23.8396 8.544ZM14.8002 62.5249C14.5347 62.6188 14.2692 62.7259 14.0171 62.8198C13.5525 61.467 13.1808 60.0343 12.7826 58.5343L12.7162 58.2664C13.9507 59.4316 15.2648 60.6503 16.6983 61.7884C16.0479 62.0697 15.4108 62.2973 14.8002 62.5249ZM14.9196 68.3905C13.8179 67.48 12.8091 66.5691 11.8933 65.6586C12.172 65.5917 13.5259 65.2835 13.5259 65.2835C14.0436 66.5425 14.4816 67.5199 14.9196 68.3905ZM12.7295 55.1062C12.2384 52.4012 11.8933 49.7897 11.6941 47.3257H11.7074V47.2854L12.4773 46.6294C13.6587 45.6117 14.8931 44.5671 16.2736 43.4688C18.3974 45.1698 20.853 46.9642 22.9237 48.4106C23.1095 51.6244 23.375 54.5304 23.7334 57.5166C23.5078 57.6105 23.2821 57.7309 23.0697 57.8381C22.8441 57.9586 22.6184 58.0657 22.3927 58.1593C20.9194 58.8824 19.5522 59.4985 18.3841 60.0073C16.6054 58.5746 14.548 56.8737 12.7295 55.1062ZM14.1365 16.2977C13.5657 16.1772 13.0348 16.0968 12.5437 16.0298C13.5259 15.1192 14.5214 14.2488 15.5302 13.4319C15.0657 14.3291 14.6011 15.2799 14.1365 16.2977ZM17.1895 19.4982C15.7692 20.6231 14.4418 21.7614 13.2074 22.8997C13.6719 21.2793 14.0967 19.9 14.5745 18.6144C14.5878 18.6278 16.7116 19.3375 17.1895 19.4982ZM13.141 26.1002C15.0391 24.3057 16.924 22.6988 18.9018 21.1989L18.9814 21.2257C20.3751 21.8016 21.9547 22.4577 24.1582 23.4487C23.6272 26.9573 23.3617 29.9704 23.2423 32.1131C20.7203 33.8672 18.4239 35.5948 16.4063 37.2285C14.2825 35.5948 12.9684 34.5368 11.9331 33.6932C12.2251 31.0281 12.6366 28.4571 13.141 26.1002ZM23.8927 44.0449C21.968 42.7324 20.1761 41.4604 18.5832 40.255C20.2159 38.9963 21.9945 37.7643 23.8794 36.4518L23.9723 36.3849C23.8661 38.9158 23.8794 41.5137 23.8927 44.0449ZM14.2029 40.2953C12.9153 41.3799 11.7738 42.4378 10.7384 43.4422C10.6721 41.2727 10.7517 39.1568 10.8446 37.3087C11.9065 38.3131 13.0348 39.3175 14.2029 40.2953ZM21.4769 62.6454C22.6981 62.1768 23.9591 61.6813 25.2997 61.0922C25.3926 61.6413 25.4855 62.1768 25.5785 62.7126C25.7908 63.958 25.9899 65.1497 26.2554 66.2746C24.4369 65.2033 22.6582 64.0382 20.9725 62.8464L21.4769 62.6454ZM25.7244 19.9402H25.7112C24.2378 19.3643 22.8308 18.8019 21.5167 18.3733C23.2555 17.1681 25.0475 16.0968 26.7333 15.1192C26.3882 16.5521 26.0032 18.1992 25.7244 19.9402ZM12.5038 12.9096C12.7959 12.615 13.0879 12.3338 13.3799 12.0526C14.3887 11.1419 15.4506 10.2179 16.6187 9.37427C17.0567 9.21356 17.4948 9.09306 17.9195 8.98593L17.9992 8.95914C17.4019 9.74924 16.8443 10.5795 16.3665 11.4098C14.7869 12.5748 13.2339 13.9006 11.734 15.4272L11.4154 15.4138C11.1898 15.4004 10.9906 15.4004 10.8048 15.4004H10.7915C11.349 14.4898 11.9331 13.6595 12.5038 12.9096ZM9.21197 17.4091C9.45088 17.4226 9.71636 17.4627 9.99509 17.4895L9.75619 17.7573C9.15887 18.4269 8.58808 19.0563 8.04386 19.7125C8.41554 18.9224 8.81374 18.1591 9.21197 17.4091ZM10.8313 18.4939C11.2561 18.601 11.6941 18.7215 12.1853 18.8554L12.4507 18.9358C11.8003 20.6231 11.1898 22.5247 10.6853 24.5468C9.31813 25.9395 8.07041 27.359 6.90233 28.8856L6.57048 28.5107C6.27847 28.1893 5.98644 27.8679 5.74753 27.6402C6.2121 25.8458 6.82269 24.0915 7.40673 22.5113C8.45537 21.132 9.61017 19.7928 10.8313 18.4939ZM8.58808 44.5401C7.69876 45.4643 6.87578 46.3748 6.09263 47.3257C5.28293 46.1206 4.56615 44.9957 3.99538 44.018C3.91574 41.4068 3.94229 39.3311 4.07503 37.4964C4.65907 36.492 5.36258 35.3003 6.30502 34.028L6.38467 34.1218C7.14127 34.9788 7.92439 35.876 8.66772 36.5456C8.45537 39.3311 8.42882 42.0494 8.58808 44.5401ZM8.95976 48.4106L9.42433 47.955C9.62344 49.83 9.80928 51.6111 10.1278 53.3653C9.0925 52.2537 8.15006 51.1422 7.34036 50.0709C7.8315 49.5354 8.37572 48.9863 8.95976 48.4106ZM9.66327 32.9298C8.84029 32.1799 8.15006 31.4837 7.65894 30.9882C8.41554 30.0105 9.29159 29.0062 10.5261 27.6938C10.2208 29.2338 9.88893 31.0418 9.66327 32.9298ZM6.62357 20.5294C6.45104 20.9043 6.27847 21.2927 6.11918 21.6676C5.89352 21.9622 5.68116 22.297 5.46877 22.605C5.82718 21.9087 6.2121 21.2123 6.62357 20.5294ZM5.38912 24.4531C5.07057 25.3637 4.77854 26.3145 4.51305 27.2653C4.39361 27.0778 4.28742 26.9037 4.18122 26.7296L4.0883 26.5689C4.45995 25.8994 4.88473 25.203 5.38912 24.4531ZM4.55287 30.3052C4.65907 30.439 4.75199 30.5864 4.85818 30.7337C5.07057 31.0281 5.28293 31.3363 5.52187 31.6442C4.85818 32.595 4.32724 33.4253 3.87591 34.1887C4.04848 32.97 4.27414 31.6977 4.55287 30.3052ZM5.25638 49.5218C4.89801 50.0173 4.5396 50.4996 4.23432 50.9681C3.98211 49.5621 3.79627 48.2498 3.67683 47.0042C4.15467 47.8748 4.68562 48.7184 5.25638 49.5218ZM0.902613 40.7638C0.902613 40.7103 0.902613 40.67 0.902613 40.6164L0.915887 40.67C0.929159 40.6836 0.915887 40.7236 0.902613 40.7638ZM3.25205 51.8118C3.09276 52.1199 2.94676 52.4012 2.81403 52.6688C2.49546 51.9592 2.21671 51.3029 1.96451 50.6603C1.49993 48.6782 1.18136 46.6561 1.02208 44.5804C1.11499 44.1118 1.22118 43.6163 1.39374 43.0941C1.73886 43.9913 2.09725 44.7947 2.46891 45.4909C2.61492 47.6069 2.90694 49.7228 3.31842 51.6913L3.25205 51.8118ZM2.60165 42.4914C2.28308 41.8218 2.03088 41.1792 1.8185 40.7103C2.0707 40.054 2.34945 39.4113 2.66802 38.7551C2.60165 39.9471 2.58837 41.1792 2.60165 42.4914ZM2.61492 35.9562C2.12379 36.9473 1.75213 37.7643 1.44684 38.5008C1.3141 38.0053 1.20791 37.523 1.11499 37.0811C1.32737 35.0993 1.67249 33.1441 2.15034 31.2561C2.42909 30.5328 2.74766 29.7963 3.14586 29.0196C3.2786 29.274 3.42462 29.5418 3.61046 29.8097C3.14586 32.0462 2.8273 34.0682 2.61492 35.9562ZM3.63701 55.0393C3.75648 54.7581 3.92901 54.4902 4.11485 54.1956C4.36706 55.2266 4.64579 56.231 4.9511 57.1952C4.49978 56.472 4.04848 55.7355 3.63701 55.0393ZM4.18122 57.3692C4.69889 58.2531 5.24311 59.1101 5.78735 59.8868C6.22537 61.0386 6.6634 62.0294 7.11472 62.9536C5.99971 61.1724 5.0042 59.3111 4.18122 57.3692ZM8.99958 64.3061C8.85357 64.333 8.72082 64.3596 8.60135 64.3863C8.16333 63.5293 7.77841 62.699 7.43328 61.8956C8.11023 62.7526 8.74737 63.516 9.39778 64.2259C9.25179 64.2658 9.11905 64.2794 8.99958 64.3061ZM6.88906 59.137C6.29175 57.5166 5.77408 55.7089 5.2962 53.8875L5.74753 53.3117C6.01299 52.9902 6.2652 52.6688 6.53065 52.3476C7.59257 53.7537 8.81374 55.2 10.1544 56.5925C10.5792 58.4541 11.1499 60.4093 11.8667 62.5652C11.8402 62.5785 11.8269 62.5918 11.8003 62.5918C11.2296 62.8062 10.6986 62.9938 10.1942 63.1276C8.85357 61.6946 7.76513 60.369 6.88906 59.137ZM16.7647 72.8767C16.4594 72.7961 16.1939 72.7292 15.9816 72.6623C14.5082 71.4972 13.2472 70.3993 12.1454 69.3144C11.5349 68.4977 10.9508 67.6138 10.4066 66.6899C10.4862 66.6763 10.8844 66.6363 11.0039 66.6227C12.4242 68.0557 13.9241 69.3816 15.4241 70.5464C15.9816 71.5108 16.4461 72.2606 16.8974 72.9033L16.7647 72.8767ZM15.7028 65.5784C16.5523 65.3507 17.4682 65.0559 18.4372 64.7211C18.5567 64.6945 18.6761 64.6409 18.7956 64.6006C18.8885 64.5607 18.9814 64.5337 19.0743 64.5071C21.1583 66.0603 23.4679 67.5602 25.8837 68.8994C26.2687 70.3723 26.7067 71.8054 27.1713 73.1579C26.2289 73.3053 25.2731 73.3589 24.3971 73.3988C24.1847 73.3988 23.9856 73.4121 23.7732 73.4258C23.5609 73.4391 23.3617 73.4524 23.2157 73.4657C21.3972 72.4214 19.4991 71.1894 17.6275 69.8232C16.9903 68.6315 16.3798 67.279 15.7028 65.5784ZM18.4239 74.765C18.5168 74.7916 18.5965 74.8049 18.6894 74.8318L19.0212 74.8854C19.2203 75.1264 19.3796 75.3004 19.5654 75.5014C19.1805 75.2738 18.7956 75.0325 18.4239 74.765ZM19.4858 74.0148C19.0478 73.3855 18.623 72.7026 18.1717 71.9927C19.154 72.6757 20.2159 73.3722 21.4769 74.1353C20.7468 74.0954 20.0566 74.0684 19.4858 74.0148ZM27.3571 79.1839C25.5652 78.461 24.0387 77.7512 22.5919 76.9744C22.2069 76.613 21.8485 76.211 21.5565 75.8629C22.406 75.9567 23.1228 76.0103 23.7467 76.0236C25.5652 77.0147 27.5031 77.8986 29.4411 78.6081L29.5207 78.7556C29.68 79.0234 29.8393 79.291 29.9853 79.5456C29.0163 79.4385 28.1403 79.3313 27.3571 79.1839ZM30.4499 73.506C30.1579 72.5016 29.8924 71.4037 29.6137 70.2385L29.5871 70.1447C31.4321 71.0419 33.1179 71.859 34.8567 72.5552C33.3437 72.9169 31.91 73.2114 30.4499 73.506ZM31.7904 75.4878C33.7552 75.1933 35.7595 74.7247 37.4717 74.2961C39.5823 75.0595 41.6795 75.6755 43.8698 76.171C43.7634 76.9478 43.6571 77.644 43.5643 78.2198L43.5379 78.3805C42.1309 78.7286 40.7239 78.9965 39.3433 79.1975C38.9583 79.2644 38.5868 79.318 38.2417 79.3582C36.516 78.9965 34.6576 78.4743 32.6268 77.8181C32.3614 77.1754 32.1091 76.4386 31.7904 75.4878ZM33.6356 80.2152L33.0914 80.2688C32.9055 79.9606 32.7064 79.5992 32.5073 79.1975C33.6224 79.5589 34.7372 79.8804 35.8124 80.1483C35.0823 80.1883 34.3525 80.2152 33.6356 80.2152ZM43.2457 81.7284C42.5024 81.7687 41.7459 81.7953 40.9893 81.7953C38.7327 81.7953 36.516 81.5943 34.3525 81.2329C35.8391 81.2329 37.2062 81.166 38.4804 81.0455C40.1929 81.3667 41.7459 81.581 43.2457 81.6749C43.2457 81.7015 43.2457 81.7151 43.2457 81.7284ZM44.2148 80.4026C44.1749 80.5231 44.1484 80.6435 44.1217 80.7507C43.0333 80.6572 42.0246 80.55 41.0821 80.4026C42.0246 80.2555 43.1928 80.0545 44.3872 79.7599C44.3208 79.9876 44.268 80.2019 44.2148 80.4026ZM45.3032 74.2158C43.7634 73.8141 42.1174 73.3722 40.4184 72.7961C42.1174 72.2606 43.8962 71.6177 45.7146 70.8546C45.6483 71.4972 45.5687 72.0999 45.4891 72.6893C45.4227 73.2248 45.3563 73.7203 45.3032 74.2158ZM45.6483 81.5141C45.6882 81.5008 45.7014 81.5008 45.7278 81.5008C45.7014 81.5141 45.675 81.5141 45.6483 81.5141ZM40.0734 53.968L41.6395 53.1107C43.4051 52.1466 45.2368 51.1422 47.0156 50.0709C46.9757 51.8251 46.9093 53.5527 46.8297 55.2133C46.7898 55.9764 46.7634 56.7266 46.7366 57.4631C44.6659 56.4587 42.4892 55.3205 40.0734 53.968ZM55.5637 78.5815C54.0108 79.2511 52.3251 79.8535 50.4402 80.4428C49.5242 80.5367 48.5686 80.5766 47.5463 80.5766C47.2544 80.5766 46.9493 80.5766 46.6306 80.5633L46.7501 80.2688C46.8562 79.9876 46.9757 79.693 47.0021 79.4251C49.0464 78.8358 51.064 78.1262 53.1744 77.2556C53.7717 77.2826 54.3159 77.2959 54.8337 77.2959C55.5106 77.2959 56.1347 77.2826 56.732 77.229C56.3602 77.6976 55.962 78.1529 55.5637 78.5815ZM56.6656 75.7021C56.3602 75.7021 56.0548 75.7021 55.7496 75.6888L55.9355 75.595C57.1567 74.9926 58.4177 74.3766 59.5989 73.6534C59.2805 74.2425 58.922 74.7916 58.5769 75.3274L58.4309 75.6622C57.86 75.6888 57.2762 75.7021 56.6656 75.7021ZM58.2054 77.6706C58.5105 77.3358 58.7892 76.9877 59.0015 76.6529C59.546 76.5994 60.0503 76.5058 60.5548 76.3987C59.7848 76.8539 58.9883 77.269 58.2054 77.6706ZM67.2845 71.3901C65.6783 72.7159 64.2314 73.7739 62.7979 74.7114C62.0546 74.8854 61.3113 75.0192 60.5945 75.1131C61.1654 74.2827 61.7096 73.3988 62.2273 72.4347C64.1785 71.1358 66.0102 69.77 67.6827 68.3636C68.3197 68.4172 68.8242 68.4707 69.2756 68.4844C68.7314 69.3949 68.0941 70.3324 67.2845 71.3901ZM68.6783 65.0559C67.8419 64.8552 66.9394 64.6276 66.0501 64.333C66.7403 62.284 67.2977 60.2216 67.7491 58.0924C69.5276 56.472 71.1337 54.8785 72.5143 53.3919C72.7666 53.6332 73.0188 53.8608 73.2708 54.0751C73.709 54.4632 74.1336 54.8383 74.4655 55.0928C73.9877 57.0078 73.4435 58.8289 72.7666 60.7707C71.3196 62.4045 69.9393 63.8239 68.6783 65.0559ZM70.0585 69.1673C70.3508 68.7253 70.5895 68.31 70.7754 67.9219C70.7754 67.9219 71.001 67.9083 71.2001 67.895C70.8286 68.3236 70.4436 68.7519 70.0585 69.1673ZM70.895 66.3282C70.5099 66.2613 70.1117 66.2077 69.6603 66.1408C70.6295 65.2033 71.4656 64.3863 72.2224 63.5563C71.7974 64.547 71.3463 65.4712 70.895 66.3282ZM77.014 59.0701C75.8461 61.4939 74.4259 63.7703 72.8197 65.8995C72.7266 65.9132 72.6206 65.9132 72.5011 65.9132C72.4347 65.9132 72.3551 65.9132 72.2888 65.9132C73.0453 64.4535 73.709 63.0072 74.24 61.6547C75.2487 60.4093 76.2176 59.0968 77.1071 57.7443C77.2264 57.9183 77.3195 58.0521 77.3991 58.1057C77.2927 58.4272 77.1468 58.762 77.014 59.0701ZM78.8592 54.584C78.6998 55.026 78.5406 55.4676 78.3814 55.9095C78.315 55.7891 78.2487 55.6686 78.1688 55.5212C78.5142 54.9188 78.8061 54.3697 79.0848 53.8472C79.0184 54.1018 78.9388 54.3294 78.8592 54.584ZM79.3503 50.5931C78.8724 51.6647 78.3814 52.6421 77.8637 53.566C77.7177 53.3383 77.545 53.1107 77.3591 52.8831L77.1204 52.6421C77.585 50.3255 77.8901 48.129 78.0096 46.1472C78.5142 45.3571 78.992 44.5002 79.483 43.5361C79.7221 44.1384 79.9077 44.6742 80.0671 45.1295C79.9476 46.8168 79.7085 48.6648 79.3503 50.5931ZM80.6777 42.3173C80.5182 41.8754 80.3326 41.3932 80.1068 40.8843C80.3059 40.3755 80.4918 39.9202 80.6377 39.4649C80.6777 40.4959 80.6909 41.4334 80.6777 42.3173Z" fill="url(#paint1_linear_0_79)"/>
<path d="M118.056 20.8242C120.113 22.565 121.136 25.23 121.136 28.8322C121.136 32.4345 120.087 35.086 117.99 36.7599C115.892 38.4339 112.667 39.2776 108.34 39.2776H103.096V48.0089H98.1189V18.2262H108.26C112.733 18.2262 115.999 19.0967 118.056 20.8242ZM114.538 33.1174C115.534 32.0462 116.038 30.4928 116.038 28.4305C116.038 26.3682 115.401 24.9085 114.14 24.0649C112.879 23.2078 110.888 22.7927 108.18 22.7927H103.11V34.7245H108.897C111.658 34.7112 113.53 34.1887 114.538 33.1174Z" fill="#212121"/>
<path d="M150.589 27.895C150.589 32.8097 148.465 35.9031 144.205 37.1887L151.93 48.009H145.599L138.537 37.9921H131.993V48.009H127.002V18.2263H137.979C142.479 18.2263 145.705 18.9896 147.656 20.5297C149.621 22.0563 150.589 24.5203 150.589 27.895ZM143.953 32.1132C144.961 31.2296 145.479 29.8233 145.479 27.8682C145.479 25.9264 144.961 24.5873 143.913 23.8641C142.877 23.141 141.006 22.7794 138.338 22.7794H132.006V33.439H138.218C141.032 33.439 142.944 32.9971 143.953 32.1132Z" fill="#212121"/>
<path d="M182.487 43.8986C179.5 46.8448 175.81 48.3045 171.417 48.3045C167.023 48.3045 163.333 46.8315 160.346 43.8986C157.36 40.9526 155.873 37.2968 155.873 32.9042C155.873 28.5119 157.36 24.8427 160.346 21.9099C163.333 18.9638 167.023 17.5042 171.417 17.5042C175.81 17.5042 179.5 18.9772 182.487 21.9099C185.474 24.8561 186.96 28.5119 186.96 32.9042C186.96 37.2968 185.474 40.9659 182.487 43.8986ZM178.837 25.2578C176.819 23.1554 174.35 22.0974 171.417 22.0974C168.483 22.0974 166.014 23.1554 163.996 25.2578C161.979 27.3603 160.97 29.9047 160.97 32.9042C160.97 35.9041 161.979 38.4483 163.996 40.5509C166.014 42.6532 168.483 43.6979 171.417 43.6979C174.35 43.6979 176.819 42.6532 178.837 40.5509C180.854 38.4483 181.863 35.9041 181.863 32.9042C181.85 29.9047 180.841 27.3603 178.837 25.2578Z" fill="#212121"/>
<path d="M198.243 22.9133V31.0955H211.344V35.7423H198.243V48.0223H193.252V18.2263H212.937L212.897 22.9133H198.243Z" fill="#212121"/>
<path d="M230.354 18.2263H235.345V48.0223H230.354V18.2263Z" fill="#212121"/>
<path d="M254.681 22.833V48.0223H249.69V22.833H240.73V18.2263H263.628V22.833H254.681Z" fill="#212121"/>
<path d="M217.676 35.6754V31.0955H224.512V35.6754H217.676Z" fill="#212121"/>
</g>
<defs>
<linearGradient id="paint0_linear_0_79" x1="13.3682" y1="71.8764" x2="13.3752" y2="71.8764" gradientUnits="userSpaceOnUse">
<stop stop-color="#C3D200"/>
<stop offset="0.2472" stop-color="#91AF5F"/>
<stop offset="0.4825" stop-color="#5E9384"/>
<stop offset="0.7367" stop-color="#28799C"/>
<stop offset="1" stop-color="#005CA9"/>
</linearGradient>
<linearGradient id="paint1_linear_0_79" x1="82.0328" y1="23.4218" x2="5.04855" y2="53.8284" gradientUnits="userSpaceOnUse">
<stop stop-color="#0B41AD"/>
<stop offset="0.357048" stop-color="#3181F7"/>
<stop offset="1" stop-color="#55BD9A"/>
</linearGradient>
</defs>
</svg>
